<svg id="visual" viewBox="0 0 960 540" width="960" height="540" xmlns="http://www.w3.org/2000/svg" xmlns:xlink="http://www.w3.org/1999/xlink" version="1.1"><rect x="0" y="0" width="960" height="540" fill="#011f39"></rect><path d="M0 464L22.8 463.3C45.7 462.7 91.3 461.3 137 461.8C182.7 462.3 228.3 464.7 274 467.3C319.7 470 365.3 473 411.2 475.2C457 477.3 503 478.7 548.8 480C594.7 481.3 640.3 482.7 686 479C731.7 475.3 777.3 466.7 823 461.8C868.7 457 914.3 456 937.2 455.5L960 455L960 541L937.2 541C914.3 541 868.7 541 823 541C777.3 541 731.7 541 686 541C640.3 541 594.7 541 548.8 541C503 541 457 541 411.2 541C365.3 541 319.7 541 274 541C228.3 541 182.7 541 137 541C91.3 541 45.7 541 22.8 541L0 541Z" fill="#cccccc"></path><path d="M0 513L22.8 512.7C45.7 512.3 91.3 511.7 137 509.2C182.7 506.7 228.3 502.3 274 497.3C319.7 492.3 365.3 486.7 411.2 486C457 485.3 503 489.7 548.8 497.2C594.7 504.7 640.3 515.3 686 521C731.7 526.7 777.3 527.3 823 522.8C868.7 518.3 914.3 508.7 937.2 503.8L960 499L960 541L937.2 541C914.3 541 868.7 541 823 541C777.3 541 731.7 541 686 541C640.3 541 594.7 541 548.8 541C503 541 457 541 411.2 541C365.3 541 319.7 541 274 541C228.3 541 182.7 541 137 541C91.3 541 45.7 541 22.8 541L0 541Z" fill="#ffffff"></path></svg>